<?xml version="1.0" standalone="no"?>
<!DOCTYPE svg PUBLIC "-//W3C//DTD SVG 20010904//EN"
 "http://www.w3.org/TR/2001/REC-SVG-20010904/DTD/svg10.dtd">
<svg version="1.0" xmlns="http://www.w3.org/2000/svg"
 width="1700.000000pt" height="2200.000000pt" viewBox="0 0 1700.000000 2200.000000"
 preserveAspectRatio="xMidYMid meet">

<g transform="translate(0.000000,2200.000000) scale(0.100000,-0.100000)"
fill="#000000" stroke="none">
<path d="M8895 15460 c4 -6 -8 -10 -28 -10 -63 0 -129 -12 -115 -21 9 -6 3 -9
-17 -9 -48 0 -105 -12 -100 -20 3 -4 -18 -10 -46 -14 -27 -4 -47 -11 -44 -16
3 -5 -15 -12 -40 -15 -25 -4 -45 -11 -45 -15 0 -4 -15 -11 -33 -14 -38 -7 -88
-56 -57 -56 5 0 44 -16 87 -36 92 -42 103 -46 168 -67 416 -132 830 -113 1253
56 61 24 70 51 22 62 -16 4 -30 11 -30 16 0 5 -9 9 -20 9 -20 0 -60 18 -70 32
-5 7 -48 16 -83 17 -10 1 -16 5 -13 10 6 10 -26 21 -64 21 -17 0 -21 3 -12 9
14 9 -52 21 -115 21 -19 0 -32 4 -29 9 7 11 -43 21 -108 21 -37 0 -47 3 -36
10 10 6 -60 10 -208 10 -146 0 -221 -3 -217 -10z m113 -7 c-10 -2 -28 -2 -40
0 -13 2 -5 4 17 4 22 1 32 -1 23 -4z m275 0 c-7 -2 -19 -2 -25 0 -7 3 -2 5 12
5 14 0 19 -2 13 -5z"/>
<path d="M8190 15211 c0 -5 -13 -12 -30 -16 -16 -4 -28 -12 -27 -18 1 -7 -4
-11 -11 -9 -7 1 -15 -5 -18 -13 -4 -8 -12 -15 -20 -15 -8 0 -31 -17 -51 -37
-20 -21 -41 -38 -47 -38 -6 -1 -10 -6 -8 -13 1 -7 -3 -12 -10 -12 -6 0 -30
-19 -53 -43 -23 -24 -49 -46 -58 -50 -9 -3 -17 -13 -17 -21 0 -7 -7 -16 -15
-20 -8 -3 -14 -11 -13 -18 2 -7 -4 -12 -12 -13 -8 0 -15 -5 -15 -11 0 -6 -8
-18 -17 -28 -10 -10 -18 -22 -18 -27 0 -11 -60 -69 -71 -69 -3 0 -12 -18 -19
-40 -7 -22 -17 -40 -21 -40 -4 0 -11 -14 -14 -31 -5 -21 -10 -27 -15 -19 -5 8
-10 2 -15 -19 -3 -17 -10 -31 -15 -31 -5 0 -11 -13 -15 -30 -4 -16 -10 -30
-15 -30 -4 0 -11 -16 -14 -35 -4 -20 -11 -33 -16 -30 -5 3 -12 -16 -16 -42 -4
-27 -11 -51 -16 -54 -4 -3 -13 -33 -19 -67 -6 -34 -15 -60 -19 -57 -4 3 -11
-32 -15 -76 -5 -52 -10 -77 -16 -68 -5 9 -9 -14 -9 -59 0 -42 4 -71 9 -68 5 4
11 0 14 -6 5 -17 73 20 152 83 33 27 73 59 88 71 52 41 128 121 186 194 84
108 106 136 111 148 3 6 23 38 45 71 93 142 180 392 204 586 4 36 11 71 15 77
12 19 -4 52 -25 52 -10 0 -19 -4 -19 -9z m-763 -1183 c-3 -8 -6 -5 -6 6 -1 11
2 17 5 13 3 -3 4 -12 1 -19z"/>
<path d="M8304 15195 c-14 -55 24 -261 78 -430 28 -84 128 -285 190 -380 112
-171 258 -325 416 -439 87 -62 112 -66 112 -19 0 61 -22 198 -46 286 -14 50
-29 106 -33 122 -17 63 -192 403 -242 468 -109 144 -407 417 -454 417 -8 0
-17 -11 -21 -25z"/>
<path d="M9918 15177 c-7 -8 -23 -19 -35 -26 -40 -21 -211 -167 -260 -222 -75
-83 -138 -161 -158 -194 -10 -16 -26 -39 -36 -50 -22 -26 -104 -181 -131 -247
-36 -90 -84 -257 -107 -373 -15 -75 -11 -180 7 -180 21 0 119 75 244 186 87
78 142 139 211 230 50 69 100 138 110 154 32 54 117 230 120 250 2 11 7 27 10
35 19 50 46 143 55 190 6 30 15 79 21 108 12 60 14 112 5 136 -7 20 -38 21
-56 3z"/>
<path d="M10054 15108 c6 -75 36 -225 66 -328 24 -85 119 -285 188 -399 71
-119 215 -281 336 -381 10 -8 26 -22 35 -31 21 -21 131 -94 153 -102 13 -4 18
1 20 21 5 48 -3 142 -13 136 -5 -3 -9 10 -9 28 0 53 -12 108 -21 102 -5 -3
-10 4 -10 15 -1 12 -3 26 -4 31 -1 6 -3 19 -4 31 0 11 -5 17 -11 14 -5 -3 -11
3 -11 14 -1 12 -2 24 -4 29 -1 4 -5 31 -10 60 -4 28 -11 52 -16 52 -4 0 -11
16 -15 35 -3 19 -10 33 -14 30 -5 -3 -11 8 -15 24 -3 16 -13 32 -21 35 -8 3
-14 15 -14 26 0 12 -4 19 -9 16 -5 -3 -12 10 -15 29 -4 19 -11 35 -15 35 -5 0
-12 12 -16 27 -4 19 -9 23 -15 14 -5 -9 -12 -2 -20 25 -7 21 -19 45 -27 52 -7
7 -13 20 -13 28 0 8 -5 13 -12 12 -7 -2 -12 4 -13 12 0 8 -7 15 -15 15 -8 0
-15 7 -15 15 0 8 -5 15 -11 15 -12 0 -49 35 -49 47 0 5 -5 12 -10 16 -6 4 -16
19 -24 35 -8 15 -20 27 -27 27 -7 0 -20 8 -30 18 -10 9 -22 17 -28 17 -6 0
-11 7 -11 15 0 8 -7 15 -15 15 -8 0 -15 7 -15 15 0 8 -7 15 -15 15 -8 1 -14 6
-12 13 1 7 -5 12 -13 12 -8 0 -19 9 -25 19 -5 11 -23 22 -40 26 -17 4 -28 10
-25 15 5 8 -28 20 -58 20 -16 0 -17 -7 -13 -62z"/>
<path d="M8120 14023 c-47 -3 -145 -17 -240 -34 -159 -30 -403 -117 -415 -149
-15 -37 126 -97 405 -174 132 -36 418 -54 584 -37 233 24 607 141 590 185 -12
32 -268 129 -434 165 -142 31 -365 51 -490 44z"/>
<path d="M9820 13987 c-3 -3 -25 -8 -50 -10 -86 -10 -167 -25 -216 -40 -224
-69 -323 -109 -331 -134 -4 -12 110 -70 185 -94 20 -6 55 -18 77 -26 269 -99
707 -113 985 -33 41 12 93 26 114 31 22 6 51 16 65 23 14 8 53 25 86 39 33 15
61 33 63 42 8 35 -283 140 -498 180 -82 16 -470 33 -480 22z"/>
<path d="M7286 13744 c-3 -8 -10 -13 -15 -9 -6 3 -15 -4 -21 -15 -6 -11 -16
-19 -23 -17 -7 1 -11 -3 -10 -10 1 -6 -11 -14 -26 -18 -16 -3 -32 -13 -35 -21
-3 -8 -12 -14 -21 -14 -8 0 -15 -4 -15 -9 0 -5 -9 -12 -20 -16 -26 -8 -97 -79
-105 -105 -3 -11 -12 -20 -19 -20 -20 0 -90 -72 -105 -108 -7 -17 -17 -29 -22
-26 -5 3 -12 -3 -16 -13 -4 -10 -17 -28 -29 -40 -13 -12 -26 -33 -30 -47 -3
-14 -10 -24 -14 -21 -5 3 -11 -8 -15 -24 -3 -16 -13 -32 -21 -35 -8 -3 -14
-15 -14 -26 0 -12 -4 -19 -8 -16 -5 3 -14 -17 -21 -44 -7 -28 -17 -50 -21 -50
-5 0 -11 -13 -15 -30 -4 -16 -10 -30 -15 -30 -5 0 -12 -14 -15 -31 -5 -21 -10
-27 -15 -19 -4 7 -10 -7 -14 -34 -4 -25 -11 -46 -15 -46 -5 0 -11 -19 -15 -42
-4 -23 -12 -45 -18 -49 -6 -4 -13 -31 -16 -60 -3 -30 -9 -57 -15 -60 -15 -10
-30 -185 -17 -209 13 -24 28 -19 105 39 158 119 299 251 372 349 15 20 36 46
46 56 9 11 17 24 17 29 0 4 11 23 25 41 51 67 147 252 175 337 11 35 25 73 30
84 8 20 21 66 25 95 1 8 7 35 13 60 18 76 32 164 32 203 0 30 -4 37 -19 37
-10 0 -22 -7 -25 -16z"/>
<path d="M7417 13753 c-26 -25 23 -310 83 -486 37 -105 76 -194 146 -328 45
-85 216 -291 322 -387 96 -87 213 -174 227 -169 15 6 8 169 -11 257 -22 102
-92 328 -104 335 -6 3 -10 17 -10 29 0 13 -7 29 -15 36 -8 7 -15 18 -15 25 0
17 -55 113 -110 196 -116 171 -264 328 -427 452 -62 47 -74 53 -86 40z"/>
<path d="M9000 13684 c-132 -90 -362 -315 -413 -404 -11 -19 -28 -44 -37 -55
-31 -37 -159 -309 -190 -405 -32 -96 -43 -146 -61 -255 -5 -33 -13 -85 -18
-115 -7 -43 -6 -58 5 -70 12 -12 17 -11 41 12 16 14 57 45 93 68 85 57 355
329 369 373 2 6 14 26 27 42 12 17 40 64 62 105 21 41 53 101 71 134 17 32 31
64 31 72 0 8 7 26 16 39 9 14 20 39 24 57 5 18 18 65 28 103 46 168 62 338 32
341 -8 1 -44 -18 -80 -42z"/>
<path d="M9177 13723 c-10 -10 -8 -107 3 -155 5 -24 19 -86 30 -138 25 -114
79 -267 126 -359 19 -36 34 -72 34 -78 0 -7 4 -13 8 -13 4 0 18 -20 30 -45 47
-98 190 -277 304 -383 105 -97 236 -195 254 -188 17 7 17 16 -2 141 -9 55 -17
114 -19 130 -1 17 -22 91 -45 165 -45 146 -115 294 -189 403 -25 38 -51 77
-57 88 -56 99 -258 300 -399 397 -64 44 -68 46 -78 35z"/>
<path d="M10747 13653 c-85 -60 -327 -290 -327 -310 0 -7 -4 -13 -8 -13 -30 0
-214 -327 -269 -480 -39 -107 -78 -291 -87 -411 -4 -55 -2 -71 9 -75 16 -6
147 89 241 175 85 78 201 211 266 307 80 116 182 334 218 464 7 25 16 56 20
70 4 14 13 59 20 100 6 41 16 93 21 115 13 56 3 117 -19 114 -4 0 -42 -26 -85
-56z"/>
<path d="M10932 13644 c-1 -89 71 -389 105 -439 7 -11 13 -27 13 -37 0 -28
124 -267 173 -334 24 -33 46 -65 48 -72 10 -30 242 -260 323 -321 122 -92 132
-97 140 -68 14 52 2 232 -14 207 -4 -7 -11 18 -15 54 -3 36 -10 66 -15 66 -4
0 -10 23 -14 50 -4 28 -10 50 -15 50 -5 0 -11 18 -15 40 -3 22 -10 40 -15 40
-5 0 -12 16 -15 35 -4 19 -11 35 -16 35 -4 0 -11 14 -15 30 -4 17 -10 30 -15
30 -5 0 -11 13 -15 30 -4 16 -13 33 -20 38 -8 4 -16 18 -18 32 -2 13 -9 26
-15 28 -7 2 -12 9 -12 16 0 6 -9 19 -20 29 -11 9 -20 23 -20 31 0 8 -7 16 -15
20 -8 3 -14 11 -13 18 2 7 -2 12 -9 11 -6 -1 -15 11 -18 29 -4 17 -10 26 -14
19 -4 -6 -12 4 -20 24 -7 19 -17 34 -24 32 -6 -1 -11 3 -12 8 -1 16 -38 55
-53 55 -7 0 -10 5 -7 11 4 6 -2 13 -14 16 -12 3 -21 12 -21 19 0 8 -5 13 -12
12 -7 -2 -12 4 -13 12 0 8 -7 15 -15 15 -8 1 -14 6 -12 13 1 7 -6 15 -15 19
-10 4 -21 11 -25 17 -4 6 -11 11 -15 12 -21 2 -43 18 -43 30 0 8 -6 14 -14 14
-8 0 -16 7 -20 15 -3 8 -12 15 -20 15 -8 0 -16 5 -18 10 -2 6 -20 13 -40 16
l-36 6 0 -38z"/>
<path d="M7065 12505 c-99 -13 -253 -49 -330 -78 -22 -8 -67 -25 -100 -37
-109 -40 -111 -56 -12 -103 126 -59 327 -127 378 -127 14 0 29 -4 35 -9 13
-13 101 -21 321 -27 155 -5 209 -3 285 11 51 9 113 21 138 25 124 23 370 120
370 146 0 35 -295 151 -450 178 -219 38 -445 46 -635 21z"/>
<path d="M8935 12490 c-114 -13 -275 -46 -355 -74 -41 -15 -95 -34 -120 -42
-62 -21 -133 -57 -134 -69 -2 -15 115 -71 229 -110 28 -9 59 -21 70 -25 11 -4
38 -12 60 -18 22 -6 59 -15 81 -21 23 -6 55 -11 72 -11 17 0 59 -7 94 -16 111
-29 526 -3 653 40 22 8 78 26 125 41 110 35 220 85 220 99 0 14 -160 96 -187
96 -5 0 -37 11 -71 25 -105 43 -336 82 -512 88 -85 2 -186 1 -225 -3z"/>
<path d="M10720 12469 c-52 -3 -131 -13 -175 -23 -97 -21 -281 -80 -350 -111
-27 -13 -58 -26 -67 -29 -35 -11 -17 -35 50 -66 83 -40 234 -92 327 -114 39
-9 86 -21 105 -26 19 -5 112 -12 205 -16 258 -10 406 8 660 82 91 26 225 88
225 104 0 25 -69 59 -225 111 -33 11 -69 24 -80 28 -24 11 -184 45 -280 61
-69 11 -206 11 -395 -1z"/>
<path d="M6488 12235 c-1 -14 -2 -40 -4 -57 -3 -55 17 -233 28 -239 5 -3 12
-32 15 -63 3 -33 9 -52 14 -45 5 8 10 -1 14 -24 4 -20 11 -34 16 -32 4 3 11
-17 15 -44 4 -28 10 -48 15 -45 5 3 10 -4 10 -15 2 -37 4 -42 16 -49 6 -4 15
-20 18 -35 4 -15 11 -27 15 -27 4 0 13 -20 20 -45 7 -25 16 -45 20 -45 4 0 11
-11 14 -25 4 -14 10 -25 15 -25 5 0 12 -13 16 -30 4 -16 12 -28 18 -27 6 1 11
-3 12 -9 0 -6 8 -18 18 -28 9 -10 17 -22 17 -27 0 -6 15 -23 33 -40 17 -16 32
-34 32 -39 0 -6 5 -10 10 -11 6 0 13 -9 17 -20 4 -11 12 -17 18 -14 5 3 10 1
10 -5 0 -15 144 -160 159 -160 6 0 10 -5 8 -12 -1 -7 3 -12 10 -13 6 0 22 -12
36 -27 14 -15 37 -30 51 -34 14 -3 24 -10 21 -15 -6 -9 63 -25 71 -16 6 6 -24
250 -36 292 -5 17 -18 66 -31 110 -12 44 -29 98 -39 120 -59 137 -78 177 -112
234 -21 34 -38 65 -38 68 0 8 -72 117 -104 156 -17 22 -97 106 -177 187 -101
103 -161 155 -198 174 -29 14 -55 26 -57 26 -2 0 -5 -11 -6 -25z"/>
<path d="M8140 12211 c-226 -146 -459 -410 -583 -661 -48 -97 -117 -281 -117
-313 0 -9 -4 -25 -9 -35 -18 -35 -44 -167 -49 -248 -4 -78 -3 -84 14 -84 23 0
157 102 267 202 63 56 181 189 235 263 70 97 182 303 182 335 0 9 3 20 7 24
17 17 60 152 78 246 8 41 19 98 25 125 22 113 22 175 1 175 -3 0 -26 -13 -51
-29z"/>
<path d="M8276 12231 c-6 -9 7 -128 23 -221 24 -136 34 -177 47 -208 9 -18 17
-40 19 -50 13 -63 73 -194 179 -387 35 -63 111 -157 218 -270 116 -124 282
-251 307 -236 21 13 -7 252 -40 350 -11 30 -19 64 -19 75 0 12 -6 33 -14 47
-7 15 -22 51 -31 80 -28 84 -138 291 -200 375 -158 213 -462 490 -489 445z"/>
<path d="M9935 12206 c-17 -7 -53 -32 -80 -56 -27 -23 -59 -47 -72 -53 -13 -5
-23 -14 -23 -18 0 -5 -21 -24 -47 -44 -27 -20 -65 -58 -86 -83 -21 -26 -51
-60 -66 -77 -42 -45 -159 -211 -179 -253 -9 -20 -19 -39 -22 -42 -29 -26 -147
-353 -170 -465 -6 -33 -16 -79 -21 -102 -5 -23 -9 -69 -9 -102 0 -76 8 -77 92
-16 148 105 225 177 330 305 95 115 258 374 258 408 0 12 5 24 10 27 6 3 10
18 10 32 0 15 9 46 20 69 18 37 53 164 79 294 15 71 23 177 14 183 -4 3 -22 0
-38 -7z"/>
<path d="M10054 12205 c-6 -14 -2 -63 10 -145 2 -14 7 -50 11 -80 14 -108 98
-372 137 -430 9 -14 29 -52 44 -85 69 -147 225 -341 390 -487 62 -54 182 -138
199 -138 17 0 31 43 19 61 -4 7 -11 45 -15 83 -34 315 -194 668 -416 918 -100
112 -274 266 -339 301 -31 16 -35 16 -40 2z"/>
<path d="M11710 12192 c-8 -3 -41 -25 -72 -49 -31 -23 -61 -43 -66 -43 -19 0
-254 -256 -322 -350 -64 -89 -170 -290 -205 -390 -53 -151 -95 -329 -95 -407
0 -27 -4 -63 -9 -81 -9 -28 -7 -32 10 -32 10 0 19 4 19 10 0 5 11 12 25 16 14
3 25 10 25 15 0 5 7 9 15 9 8 0 23 9 32 20 10 11 23 20 30 20 7 0 12 6 10 13
-1 6 4 11 11 9 7 -1 15 5 18 13 4 8 12 15 19 15 7 0 15 9 18 21 3 12 10 18 15
15 12 -7 142 120 142 140 0 8 5 14 11 14 5 0 15 13 20 29 5 15 21 34 35 41 13
8 27 24 30 37 4 13 10 23 15 23 5 0 9 6 9 13 0 7 9 20 20 30 11 9 20 23 20 31
0 8 7 16 15 20 8 3 15 12 15 21 0 8 4 15 9 15 4 0 14 20 21 45 7 25 16 45 21
45 4 0 11 16 15 35 3 19 10 32 15 29 5 -3 9 4 9 15 0 11 6 24 14 28 8 5 18 24
21 43 3 19 10 37 15 40 4 3 11 23 14 45 4 21 11 42 17 46 6 3 13 35 16 70 3
35 10 67 16 70 12 9 23 244 11 251 -5 3 -16 3 -24 0z"/>
<path d="M7995 10960 c-194 -26 -493 -117 -542 -166 -17 -17 -17 -34 1 -34 8
0 16 -7 20 -15 3 -8 12 -15 20 -15 8 0 16 -4 18 -9 2 -6 19 -13 38 -16 19 -3
37 -10 40 -14 3 -4 18 -11 35 -15 16 -4 32 -11 35 -16 5 -8 30 -14 113 -27 20
-3 37 -9 37 -13 0 -4 23 -10 52 -13 28 -4 54 -11 57 -16 3 -5 88 -12 188 -16
197 -8 445 1 422 16 -10 6 -5 9 16 9 51 0 105 12 99 21 -3 5 4 10 15 10 12 1
24 2 29 3 4 1 35 6 70 10 34 4 62 12 62 17 0 5 11 11 25 15 14 3 25 10 25 14
0 4 18 10 40 14 22 3 40 10 40 15 0 5 11 12 25 15 14 4 23 11 20 15 -3 5 1 11
7 14 7 2 11 7 8 9 -18 18 -216 102 -293 124 -90 25 -119 32 -242 54 -82 15
-394 21 -480 10z"/>
<path d="M9915 10953 c-85 -5 -289 -33 -310 -42 -11 -5 -51 -17 -90 -26 -98
-25 -289 -108 -293 -127 -2 -11 7 -18 27 -23 17 -4 31 -10 31 -15 0 -5 14 -11
30 -15 17 -4 30 -11 30 -16 0 -5 11 -9 24 -9 14 0 31 -7 40 -15 8 -8 22 -15
32 -15 26 0 94 -22 94 -31 0 -4 29 -11 65 -14 36 -4 63 -11 60 -15 -2 -4 33
-10 78 -14 45 -4 84 -11 85 -16 5 -12 402 -13 402 -1 0 4 37 11 82 15 45 4 85
11 88 16 3 6 35 13 71 16 36 4 67 13 72 20 4 7 30 16 57 20 27 4 47 10 45 14
-3 4 11 11 30 14 19 4 35 11 35 16 0 4 13 11 29 15 16 3 32 13 35 21 3 8 12
14 21 14 39 0 1 28 -98 72 -222 101 -529 156 -772 141z"/>
</g>
</svg>
